<?xml version="1.0" encoding="UTF-8"?>
<svg width="889px" height="201px" viewBox="0 0 889 201" version="1.1" xmlns="http://www.w3.org/2000/svg" xmlns:xlink="http://www.w3.org/1999/xlink">
    <!-- Generator: Sketch 55.2 (78181) - https://sketchapp.com -->
    <title>logos/brandwatch/horizontal--transparent</title>
    <desc>Created with Sketch.</desc>
    <g id="logos/brandwatch/horizontal--transparent" stroke="none" stroke-width="1" fill="none" fill-rule="evenodd">
        <g id="horizontal--white">
            <g id="wordmark-and-icon" transform="translate(0.647612, 0.765074)">
                <g id="icon" transform="translate(0.000000, 0.000071)">
                    <path d="M0,60.5042974 L0,112.860495 L61.1864871,141.719057 L123.759524,75.8838432 L82.7337886,1.13367253 C81.4109883,1.5809145 80.1210587,2.15665138 78.8859139,2.86685969 L10.7626938,41.9711479 C4.10287236,45.7931244 0,52.8583522 0,60.5042974" id="Fill-36" fill="#57B7DD"></path>
                    <polygon id="Fill-38" fill="#F99132" points="61.185989 141.719256 134.961989 176.516475 168.442384 157.298019 123.759026 75.8840425"></polygon>
                    <path d="M160.419421,37.3132572 L100.410305,2.86666047 C94.9866249,-0.247099908 88.5379734,-0.823832875 82.7337886,1.1344694 L123.759524,75.8846401 L160.419421,37.3132572 Z" id="Fill-40" fill="#A98BBC"></path>
                    <path d="M168.442384,157.297621 L168.533027,157.244828 C175.192849,153.421855 179.295721,146.357624 179.295721,138.712675 L179.295721,60.5040982 C179.295721,52.858153 175.192849,45.7939212 168.533027,41.9709486 L160.419919,37.3132572 L123.759026,75.8846401 L168.442384,157.297621 Z" id="Fill-42" fill="#FF6D56"></path>
                    <path d="M3.55271368e-15,112.859997 L3.55271368e-15,138.712376 C3.55271368e-15,146.357325 4.10287236,153.422553 10.7626938,157.245525 L33.8389851,170.491458 L61.1864871,141.719555 L3.55271368e-15,112.859997 Z" id="Fill-44" fill="#8AC539"></path>
                    <path d="M33.8386863,170.491856 L78.885615,196.350212 C85.5454365,200.172188 93.7501851,200.172188 100.410007,196.350212 L134.962188,176.516176 L61.1861883,141.718957 L33.8386863,170.491856 Z" id="Fill-46" fill="#FFBE0A"></path>
                </g>
                <g id="wordmark" transform="translate(239.060298, 49.804627)" fill="#252328">
                    <path d="M457.252922,71.9034606 C457.252922,82.3055718 448.829035,85.9960652 441.61539,85.9960652 C428.72008,85.9960652 427.328549,79.4139383 427.328549,76.5830659 C427.328549,74.1984395 427.964051,70.9312821 430.994141,68.9112226 C434.069054,66.8563001 438.648055,66.6969265 444.781943,66.6969265 L457.241965,66.6969265 L457.252922,71.9034606 Z M429.867569,46.2054747 C430.121571,44.1037363 431.144549,42.3725413 432.996271,40.9102891 C435.492459,38.9380417 438.998676,37.9369767 443.420296,37.9369767 C448.13078,37.9369767 451.708715,38.9729046 454.056487,41.0158741 C456.215002,42.8924974 457.263879,45.5669845 457.263879,49.1907402 L457.263879,53.4778882 L444.606632,53.4778882 C437.08221,53.4778882 429.21613,53.8504238 422.992593,58.3009297 C417.348778,62.3340761 414.240994,68.7508529 414.240994,76.3708999 C414.240994,90.1855969 424.986755,99.1095186 441.61539,99.1095186 C448.36486,99.1095186 455.623328,96.5147182 459.58874,92.5961215 L459.927409,97.9321466 L470.339481,97.9321466 L470.339481,49.2973212 C470.339481,41.4471787 467.714798,35.2754387 462.538147,30.9514356 C457.640399,26.8545397 451.204697,24.7767073 443.407347,24.7767073 C435.720562,24.7767073 429.360562,26.8495593 424.50465,30.9345021 C419.899751,34.8042907 417.416512,39.5765319 417.123663,45.1177504 L429.867569,46.2054747 Z" id="Fill-48"></path>
                    <path d="M156.490564,71.9034606 C156.490564,82.3055718 148.066677,85.9960652 140.854029,85.9960652 C127.957722,85.9960652 126.566191,79.4139383 126.566191,76.5830659 C126.566191,74.1984395 127.201693,70.9312821 130.231783,68.9112226 C133.306696,66.8563001 137.885696,66.6969265 144.019585,66.6969265 L156.479607,66.6969265 L156.490564,71.9034606 Z M129.105211,46.2054747 C129.359213,44.1037363 130.382191,42.3725413 132.234909,40.9102891 C134.730101,38.9380417 138.236318,37.9369767 142.657938,37.9369767 C147.368422,37.9369767 150.946357,38.9729046 153.294129,41.0158741 C155.452644,42.8924974 156.501521,45.5669845 156.501521,49.1907402 L156.501521,53.4778882 L143.844274,53.4778882 C136.319852,53.4778882 128.453772,53.8504238 122.230235,58.3009297 C116.587416,62.3340761 113.478636,68.7508529 113.478636,76.3708999 C113.478636,90.1855969 124.224397,99.1095186 140.854029,99.1095186 C147.602501,99.1095186 154.86097,96.5147182 158.826382,92.5961215 L159.166047,97.9321466 L169.578119,97.9321466 L169.578119,49.2973212 C169.578119,41.4471787 166.95244,35.2754387 161.775789,30.9514356 C156.878041,26.8545397 150.442339,24.7767073 142.644989,24.7767073 C134.958204,24.7767073 128.598204,26.8495593 123.742292,30.9345021 C119.137393,34.8042907 116.654154,39.5765319 116.361305,45.1177504 L129.105211,46.2054747 Z" id="Fill-50"></path>
                    <path d="M295.828153,61.6138074 C295.828153,69.6880689 294.613926,75.955433 291.533037,80.2385967 C288.768902,84.0715301 284.729779,85.9362005 279.185572,85.9381926 L279.180592,85.9381926 L279.176608,85.9381926 C273.632401,85.9362005 269.592282,84.0715301 266.829143,80.2385967 C263.748254,75.955433 262.186393,69.6880689 262.186393,61.6138074 C262.186393,53.7596805 263.66259,48.0551042 266.830139,43.660379 C269.581325,39.8334221 273.61746,37.9727361 279.180592,37.9727361 C284.74472,37.9727361 288.780855,39.8334221 291.532041,43.660379 C294.69959,48.0551042 295.828153,53.7596805 295.828153,61.6138074 L295.828153,61.6138074 Z M293.833992,0.00697259201 L293.792157,30.2441159 C289.976157,26.3544056 284.12914,24.8005137 279.251314,24.7776038 L279.048113,24.7776038 C269.700855,24.8204354 262.230221,28.3286453 256.845388,35.2056132 C251.544226,41.9540861 249.075928,50.3411182 249.075928,61.6018543 C249.075928,73.1474706 251.61694,82.0016664 256.845388,88.6694565 C262.246158,95.5474205 269.722769,99.0566265 279.069031,99.0994581 L279.243345,99.0994581 C285.813519,99.0994581 292.324924,95.8392733 296.132955,91.8210681 L296.520432,97.932047 L306.932504,97.932047 L306.932504,69.2288739 L306.932504,49.2972216 L306.932504,-1.70530257e-13 L293.833992,0.00697259201 Z" id="Fill-52"></path>
                    <path d="M569.040107,73.0901958 C568.813996,77.2179702 567.513109,80.2112044 565.063738,82.2422208 C562.108355,84.6876085 558.421846,85.9277338 554.105811,85.9277338 C548.512796,85.9277338 544.447775,84.0620673 541.680652,80.2271417 C538.547966,75.8702678 537.025949,69.8857917 537.025949,61.9320564 C537.025949,53.965372 538.54697,47.982888 541.676668,43.6439436 C544.446779,39.8040376 548.5118,37.9373751 554.105811,37.9373751 C558.421846,37.9373751 562.107358,39.1755082 565.058757,41.6169115 C567.551957,43.6847831 568.816984,46.5395615 569.040107,50.5986061 L581.790986,49.9431825 C581.450325,41.8529836 578.847556,36.0129397 573.600182,31.5664182 C568.247224,27.0451903 561.692987,24.7541958 554.11876,24.7541958 C544.692812,24.7541958 537.15544,28.2683821 531.714826,35.2011308 C526.489366,41.8798778 523.949351,50.6274926 523.949351,61.9440094 C523.949351,73.2724792 526.492355,82.0151135 531.721799,88.6729428 C537.168389,95.5987189 544.703769,99.109917 554.11876,99.109917 C561.70494,99.109917 568.260173,96.8179264 573.600182,92.2966985 C578.827634,87.8820517 581.429407,81.9981801 581.78999,73.7804824 L569.040107,73.0901958 Z" id="Fill-54"></path>
                    <path d="M513.654518,85.3360595 C511.206142,87.249538 508.080429,87.1977416 505.292388,85.1985998 C503.983533,84.2602882 501.787166,82.0121253 501.787166,77.5048426 L501.787166,39.1775004 L514.504178,39.1775004 L514.504178,25.9674268 L501.775213,25.9674268 L501.775213,12.3360094 L488.604983,12.3360094 L488.604983,25.9564699 L480.947085,25.9564699 L480.947085,39.1655474 L488.61594,39.1655474 L488.61594,77.4809366 C488.61594,86.7763978 492.644106,94.1016038 499.672479,97.5799311 C502.473468,98.9425748 505.52846,99.6079593 508.558549,99.6079593 C513.094718,99.6079593 517.573114,98.1148285 521.045465,95.2341519 L521.490715,94.8646045 L514.143595,84.9545591 L513.654518,85.3360595 Z" id="Fill-56"></path>
                    <polygon id="Fill-58" points="383.608804 75.4315922 369.477352 25.9560714 357.313167 25.9560714 343.182711 75.4315922 329.05126 25.9560714 316.538445 25.9560714 337.100619 97.9460918 349.264804 97.9460918 363.39526 48.470571 377.526711 97.9460918 389.690896 97.9460918 410.25307 25.9560714 397.740256 25.9560714"></polygon>
                    <path d="M45.7491684,30.7041078 C45.7491684,35.2203552 44.5170117,38.3550334 41.9839687,40.2844492 C39.0584683,42.5116943 34.3310509,43.6412542 27.9322036,43.6412542 L13.0746061,43.6412542 L13.0746061,17.7081923 L27.4451182,17.7081923 C45.7481723,17.9422722 45.7491684,26.8841234 45.7491684,30.7041078 M45.2830008,80.7782753 C42.2339859,83.435829 37.7755114,84.7845275 32.0290995,84.7845275 L13.0746061,84.7845275 L13.0746061,56.7895706 L33.178581,56.7895706 C38.4717745,56.8901751 42.4889836,58.2129754 45.4603038,60.83467 C48.2583054,63.3039637 49.561184,66.2394249 49.561184,70.0713623 C49.561184,74.7649128 48.1616852,78.2671461 45.2830008,80.7782753 M51.5613218,49.2412417 C52.4528175,48.4194719 53.2765795,47.5160232 54.0296194,46.5328877 C57.2489648,42.3274186 58.8805513,37.079049 58.8805513,30.9322111 C58.8805513,22.4097115 55.9371214,15.7419214 50.1289522,11.1111242 C44.6724009,6.76421112 36.8212623,4.55987596 26.794675,4.55987596 L2.84217094e-14,4.55987596 L2.84217094e-14,97.9328439 L31.6884385,97.9328439 C41.0705591,97.9328439 48.6139076,95.4326716 54.1083101,90.5050412 C59.7670666,85.4279981 62.6367862,78.5151712 62.6367862,69.9578086 C62.6367862,63.6974171 60.4394236,58.0844805 56.1054597,53.2753842 C54.7089491,51.7264727 53.1929084,50.3817585 51.5613218,49.2412417" id="Fill-60"></path>
                    <path d="M210.375652,24.7772053 C193.321688,24.7772053 183.139711,35.7580417 183.139711,54.1527355 L183.139711,97.9316486 L196.239219,97.9316486 L196.239219,54.0471505 C196.239219,49.2031912 197.6178,37.9374747 210.386609,37.9374747 C223.155417,37.9374747 224.533998,49.2031912 224.533998,54.0471505 L224.533998,97.9436016 L237.63251,97.9436016 L237.63251,54.1477551 C237.613584,35.7560495 227.424635,24.7772053 210.375652,24.7772053" id="Fill-62"></path>
                    <path d="M621.808185,24.7772053 C615.866541,24.7772053 610.514579,26.2942421 605.839954,30.1421168 L605.839954,0.122119969 L592.742438,0.122119969 L592.742438,97.9316486 L605.839954,97.9316486 L605.839954,54.3429876 C605.839954,43.5733212 613.407208,37.9374747 620.881827,37.9374747 C630.107562,37.9374747 634.309047,46.1810706 634.309047,53.8419571 L634.309047,97.9196955 L647.455371,97.9196955 L647.455371,55.1069845 C647.455371,26.2394575 626.091349,24.7772053 621.808185,24.7772053" id="Fill-64"></path>
                    <path d="M101.551519,24.7772053 C84.4975555,24.7772053 74.315579,35.7580417 74.315579,54.1527355 L74.315579,97.9316486 L87.4150872,97.9316486 L87.4150872,54.0471505 C87.4150872,49.2031912 88.7936683,37.9374747 101.562476,37.9374747 C102.572506,37.9374747 104.461083,38.0261262 106.384522,38.61282 L109.790135,25.751376 C107.325822,25.114878 104.243936,24.7772053 101.551519,24.7772053" id="Fill-66"></path>
                </g>
            </g>
        </g>
    </g>
</svg>